# xmcd CD Database Entry
#
# Track frame offsets:
# 182
# 6787
# 8347
# 11282
# 18670
# 26442
# 39735
# 59202
# 68617
# 75635
# 83482
# 95695
# 109265
# 116022
# 125990
# 136200
# 145672
# 163682
# 178480
# 195627
# 213317
# 220020
# 229185
# 243785
# 255665
# 265812
# 278650
# 294002
# 308357
# 323697
# 333012
# 341372
# 347867
#
# Disc length: 4721 seconds
#
# Revision: 4
# Processed by: cddbd v1.4PL0 Copyright (c) Steve Scherf et al.
# Submitted via: tcd 2.0b
#
DISCID=c5126f21
DTITLE=Trooper - Trooper Classics vol1 - A Salute to Jim Jones
DYEAR=1900
DGENRE=
TTITLE0=Battle Hymn of the Republic - 1965
TTITLE1=Jim Jones on Troopers
TTITLE2=Walter Brennen on Troopers
TTITLE3=How the West Was Won - 1968 
TTITLE4=Yankee Doodle - 1974 
TTITLE5=Age of Aquarius/Let the Sun Shine In - 1970
TTITLE6=Wagon Wheels Medley - 1971
TTITLE7=Cowboys - 1980
TTITLE8=Battle Hymn - 1983
TTITLE9=Original Composition by Jim Jones
TTITLE10=Wedding Dance - 1973
TTITLE11=Night on Bald Mountain - 1975
TTITLE12=Drum Solo - Pops Hoe-down - 1977
TTITLE13=Shenandoah/Battle Hymn Medley - 1981
TTITLE14=William Tell Overture - 1971
TTITLE15=Red Pony - 1985
TTITLE16=High Noon -1984
TTITLE17=Drum Solo - Aggie Song - 1986
TTITLE18=Silverado - 1986
TTITLE19=Black Saddles/Johnny Comes Marching Home/How the West Was Won
TTITLE19=1972
TTITLE20=Tumbling Tumble Weeds - 1969
TTITLE21=Wabash Cannon Ball - 1982
TTITLE22=Looking for Space - 1976
TTITLE23=Up Up and Away - 1978
TTITLE24=Ecstacy of Gold/Ghost Riders in the Sky - 1979
TTITLE25=Buckaroo Holiday - 1985
TTITLE26=Yellow Rose of Texas - 1974
TTITLE27=It was a Very Good Year/How the West Was Won - 1983
TTITLE28=Mariah - Ghost Riders - 1984 
TTITLE29=Turkey in the Straw - 1981
TTITLE30=No Good Byes/How the West Was Won - 1975
TTITLE31=Battle Hymn with Bells - 1970
TTITLE32=Brandt Crocker narration
EXTD=Troopers Drum and Bugle Corps
EXTT0=
EXTT1=
EXTT2=
EXTT3=
EXTT4=
EXTT5=
EXTT6=
EXTT7=
EXTT8=
EXTT9=
EXTT10=
EXTT11=
EXTT12=
EXTT13=
EXTT14=
EXTT15=
EXTT16=
EXTT17=
EXTT18=
EXTT19=
EXTT20=
EXTT21=
EXTT22=
EXTT23=
EXTT24=
EXTT25=
EXTT26=
EXTT27=
EXTT28=
EXTT29=
EXTT30=
EXTT31=
EXTT32=
PLAYORDER=
